<svg width="56" height="56" viewBox="0 0 56 56" fill="none" xmlns="http://www.w3.org/2000/svg">
<path d="M18.1994 4.66663H37.7994C45.266 4.66663 51.3327 10.7333 51.3327 18.2V37.8C51.3327 41.3892 49.9069 44.8315 47.3689 47.3695C44.8309 49.9075 41.3886 51.3333 37.7994 51.3333H18.1994C10.7327 51.3333 4.66602 45.2666 4.66602 37.8V18.2C4.66602 14.6107 6.09185 11.1684 8.62984 8.63045C11.1678 6.09246 14.6101 4.66663 18.1994 4.66663ZM17.7327 9.33329C15.5049 9.33329 13.3683 10.2183 11.793 11.7936C10.2177 13.3689 9.33268 15.5055 9.33268 17.7333V38.2666C9.33268 42.91 13.0893 46.6666 17.7327 46.6666H38.266C40.4938 46.6666 42.6304 45.7816 44.2057 44.2063C45.781 42.631 46.666 40.4944 46.666 38.2666V17.7333C46.666 13.09 42.9094 9.33329 38.266 9.33329H17.7327ZM40.2494 12.8333C41.0229 12.8333 41.7648 13.1406 42.3117 13.6876C42.8587 14.2345 43.166 14.9764 43.166 15.75C43.166 16.5235 42.8587 17.2654 42.3117 17.8124C41.7648 18.3593 41.0229 18.6666 40.2494 18.6666C39.4758 18.6666 38.7339 18.3593 38.187 17.8124C37.64 17.2654 37.3327 16.5235 37.3327 15.75C37.3327 14.9764 37.64 14.2345 38.187 13.6876C38.7339 13.1406 39.4758 12.8333 40.2494 12.8333ZM27.9994 16.3333C31.0935 16.3333 34.061 17.5625 36.2489 19.7504C38.4369 21.9383 39.666 24.9058 39.666 28C39.666 31.0942 38.4369 34.0616 36.2489 36.2495C34.061 38.4375 31.0935 39.6666 27.9994 39.6666C24.9052 39.6666 21.9377 38.4375 19.7498 36.2495C17.5618 34.0616 16.3327 31.0942 16.3327 28C16.3327 24.9058 17.5618 21.9383 19.7498 19.7504C21.9377 17.5625 24.9052 16.3333 27.9994 16.3333ZM27.9994 21C26.1428 21 24.3624 21.7375 23.0496 23.0502C21.7368 24.363 20.9993 26.1434 20.9993 28C20.9993 29.8565 21.7368 31.637 23.0496 32.9497C24.3624 34.2625 26.1428 35 27.9994 35C29.8559 35 31.6363 34.2625 32.9491 32.9497C34.2619 31.637 34.9994 29.8565 34.9994 28C34.9994 26.1434 34.2619 24.363 32.9491 23.0502C31.6363 21.7375 29.8559 21 27.9994 21Z" fill="#FFD94A"/>
</svg>
